<?xml version="1.0" standalone="no"?>
<!DOCTYPE svg PUBLIC "-//W3C//DTD SVG 20010904//EN"
 "http://www.w3.org/TR/2001/REC-SVG-20010904/DTD/svg10.dtd">
<svg version="1.0" xmlns="http://www.w3.org/2000/svg"
 width="1280.000000pt" height="716.000000pt" viewBox="0 0 1280.000000 716.000000"
 preserveAspectRatio="xMidYMid meet">
<metadata>
Created by potrace 1.15, written by Peter Selinger 2001-2017
</metadata>
<g transform="translate(0.000000,716.000000) scale(0.100000,-0.100000)"
fill="#000000" stroke="none">
<path d="M2840 7132 c-135 -13 -246 -26 -247 -27 -5 -3 147 -519 155 -526 4
-4 554 -375 1222 -826 2602 -1755 5782 -3900 5912 -3989 l138 -94 21 42 c33
65 35 137 6 251 -14 53 -22 99 -18 101 3 2 40 6 81 10 100 9 159 29 208 72 47
40 88 102 76 113 -5 5 -405 275 -889 601 -484 327 -1238 835 -1675 1130 -437
295 -1441 972 -2230 1505 -789 532 -1667 1125 -1951 1317 -345 232 -525 348
-540 347 -13 -1 -134 -13 -269 -27z m2473 -1809 c1244 -839 2749 -1855 3345
-2257 596 -402 1078 -732 1070 -733 -78 -11 -87 -14 -81 -31 6 -15 4 -15 -22
2 -27 17 -1797 1211 -4205 2836 -454 306 -951 642 -1105 746 -154 104 -513
346 -798 538 -452 305 -518 353 -525 380 -9 31 -2 37 51 45 4 0 1026 -686
2270 -1526z"/>
<path d="M9255 6883 c-225 -153 -926 -626 -1557 -1052 -632 -426 -1148 -777
-1148 -781 0 -3 59 -46 131 -95 l131 -88 192 130 c105 71 766 518 1469 992
1235 833 1280 862 1312 854 32 -8 33 -9 21 -41 -10 -28 -101 -94 -718 -510
-1867 -1259 -2188 -1476 -2188 -1481 1 -10 260 -176 270 -173 6 1 295 194 643
429 348 234 992 669 1432 966 440 297 803 542 807 546 8 7 160 523 155 526 -1
1 -103 12 -227 24 -124 12 -245 24 -270 27 -45 4 -46 4 -455 -273z"/>
<path d="M5350 4247 c-157 -106 -881 -595 -1610 -1086 -729 -492 -1329 -897
-1333 -901 -12 -11 8 -45 55 -96 49 -53 114 -79 223 -89 44 -4 83 -9 86 -11 4
-2 -4 -48 -18 -101 -29 -114 -27 -186 6 -252 l22 -42 62 44 c34 24 815 551
1735 1171 919 621 1672 1132 1672 1136 0 4 -59 46 -131 94 l-131 87 -117 -79
c-179 -122 -2662 -1796 -2696 -1818 -26 -17 -28 -17 -22 -2 6 17 -3 20 -81 31
-8 1 274 196 625 433 351 237 990 668 1421 959 430 290 782 530 782 534 0 5
-110 80 -239 163 l-27 17 -284 -192z"/>
<path d="M1825 2915 c-14 -150 12 -477 51 -630 42 -167 77 -238 242 -495 216
-338 234 -363 337 -466 111 -113 229 -195 395 -279 90 -45 319 -139 386 -159
41 -12 58 28 102 251 23 114 42 211 42 214 0 3 -51 9 -112 12 -204 10 -366 71
-489 185 -94 87 -132 164 -133 270 -1 43 3 98 7 123 l9 45 -62 12 c-170 31
-278 147 -329 351 -31 124 -29 315 4 475 14 66 23 121 21 124 -6 5 -370 42
-423 42 l-41 0 -7 -75z"/>
<path d="M10682 2970 c-95 -10 -176 -20 -179 -23 -3 -3 6 -48 18 -99 21 -81
24 -116 24 -278 -1 -174 -2 -190 -28 -266 -62 -187 -168 -284 -335 -310 l-44
-7 9 -46 c4 -25 8 -80 7 -123 -1 -106 -39 -183 -133 -270 -123 -114 -285 -175
-488 -185 -62 -3 -113 -9 -113 -12 0 -3 19 -100 42 -214 44 -223 61 -263 102
-251 67 20 296 114 386 159 217 109 393 249 505 400 73 101 347 529 382 600
58 115 95 245 117 407 20 140 30 370 21 462 l-7 76 -56 -1 c-32 -1 -135 -9
-230 -19z"/>
<path d="M1900 1839 c-30 -22 -62 -44 -70 -49 -12 -7 -7 -32 33 -157 26 -81
58 -206 73 -278 14 -71 27 -131 29 -133 2 -2 42 21 89 52 85 55 86 56 86 97 0
61 -29 248 -45 285 -7 17 -42 74 -77 127 l-63 95 -55 -39z"/>
<path d="M10778 1777 c-37 -56 -71 -114 -77 -129 -13 -35 -41 -224 -41 -277 0
-41 1 -42 86 -97 47 -31 87 -54 89 -52 2 2 15 62 29 133 15 72 47 196 73 277
25 82 45 149 42 151 -2 2 -33 24 -69 49 l-65 46 -67 -101z"/>
<path d="M1663 1673 l-92 -67 15 -35 c29 -69 85 -268 109 -385 13 -65 25 -120
27 -122 2 -1 43 22 91 53 87 55 87 55 87 96 0 54 -26 215 -47 292 -20 75 -83
235 -92 234 -3 0 -47 -30 -98 -66z"/>
<path d="M10998 1653 c-19 -48 -42 -115 -51 -148 -21 -77 -47 -238 -47 -292 0
-41 0 -41 87 -96 48 -31 89 -54 91 -52 2 2 12 47 22 99 24 121 64 268 100 367
l28 77 -91 64 c-50 34 -94 64 -98 66 -4 2 -22 -37 -41 -85z"/>
<path d="M1440 1513 c-41 -30 -82 -60 -91 -66 -14 -11 -11 -27 32 -159 27 -81
60 -200 73 -265 13 -65 25 -118 27 -118 2 0 44 25 92 55 l89 55 -7 84 c-8 103
-52 280 -95 384 -17 42 -35 79 -38 81 -4 2 -41 -21 -82 -51z"/>
<path d="M11250 1506 c-55 -120 -110 -349 -110 -450 0 -41 1 -42 85 -94 46
-29 88 -53 91 -53 4 0 18 52 31 116 13 64 45 182 72 263 27 81 48 147 47 148
0 1 -43 31 -94 68 l-93 67 -29 -65z"/>
<path d="M2185 1480 c17 -118 14 -111 44 -93 14 10 28 18 30 19 1 2 -16 29
-39 61 l-42 58 7 -45z"/>
<path d="M10577 1464 c-22 -31 -37 -56 -35 -58 1 -1 15 -10 30 -19 l26 -16 7
42 c3 23 9 57 12 75 3 17 4 32 2 32 -2 -1 -21 -26 -42 -56z"/>
<path d="M1195 1339 c-38 -28 -78 -56 -88 -64 -17 -12 -17 -16 7 -78 33 -89
92 -297 107 -379 7 -38 16 -68 20 -68 5 0 47 25 94 55 98 63 96 58 70 209 -25
142 -108 377 -133 376 -4 -1 -38 -23 -77 -51z"/>
<path d="M11496 1343 c-52 -104 -116 -352 -116 -449 0 -31 6 -38 85 -89 47
-30 89 -55 94 -55 4 0 13 30 20 68 15 82 74 290 107 379 14 37 21 69 16 72 -4
3 -45 32 -89 64 -45 31 -84 57 -87 57 -3 0 -16 -21 -30 -47z"/>
<path d="M950 1164 c-41 -30 -81 -59 -88 -63 -10 -6 -2 -41 37 -157 27 -82 59
-194 72 -249 12 -55 23 -102 25 -104 2 -2 44 23 93 54 86 54 91 60 91 92 0 42
-25 165 -52 258 -21 75 -87 225 -97 225 -3 -1 -40 -26 -81 -56z"/>
<path d="M11727 1143 c-53 -118 -107 -321 -107 -406 0 -32 5 -38 91 -92 49
-31 91 -56 93 -54 2 2 13 49 25 104 13 55 45 167 72 249 27 82 48 150 47 151
-2 1 -42 29 -90 63 -47 34 -88 62 -91 62 -2 0 -20 -35 -40 -77z"/>
<path d="M730 1009 c-30 -22 -59 -44 -63 -48 -8 -8 31 -188 53 -246 31 -84
149 -192 196 -181 19 5 24 13 24 37 0 43 -27 170 -57 264 -21 68 -88 217 -96
214 -1 0 -27 -19 -57 -40z"/>
<path d="M11976 982 c-54 -107 -116 -327 -116 -411 0 -95 173 18 220 144 10
25 60 226 60 239 0 3 -29 25 -65 50 l-65 45 -34 -67z"/>
<path d="M510 894 c-232 -59 -434 -145 -485 -206 -19 -22 -25 -41 -25 -77 0
-117 80 -327 165 -432 90 -111 211 -190 270 -175 59 15 232 216 354 414 51 82
59 102 41 102 -5 0 -36 26 -68 58 -65 63 -90 116 -120 255 -10 44 -22 82 -28
83 -5 2 -52 -8 -104 -22z"/>
<path d="M12176 908 c-3 -7 -10 -38 -16 -68 -32 -153 -82 -245 -163 -300 -20
-14 -37 -29 -37 -33 0 -13 110 -185 172 -268 75 -102 169 -201 212 -224 30
-16 40 -17 74 -7 58 18 155 94 217 171 85 105 165 315 165 432 0 36 -6 55 -25
77 -48 57 -239 141 -447 196 -141 37 -148 38 -152 24z"/>
</g>
</svg>
